<svg width="17" height="19" viewBox="0 0 17 19" fill="none" xmlns="http://www.w3.org/2000/svg">
<path fill-rule="evenodd" clip-rule="evenodd" d="M2.08333 4.16667V8.33333H14.5833V4.16667H2.08333ZM11.4583 13.0208C11.4583 13.8542 12.1875 14.5833 13.0208 14.5833C13.8542 14.5833 14.5833 13.8542 14.5833 13.0208C14.5833 12.1875 13.8542 11.4583 13.0208 11.4583C12.1875 11.4583 11.4583 12.1875 11.4583 13.0208ZM2.08333 13.0208C2.08333 13.8542 2.8125 14.5833 3.64583 14.5833C4.47917 14.5833 5.20833 13.8542 5.20833 13.0208C5.20833 12.1875 4.47917 11.4583 3.64583 11.4583C2.8125 11.4583 2.08333 12.1875 2.08333 13.0208ZM1.04167 15.8333C0.416667 15.3125 0 14.4792 0 13.5417V4.16667C0 0.520833 3.75 0 8.33333 0C12.9167 0 16.6667 0.520833 16.6667 4.16667V13.5417C16.6667 14.4792 16.25 15.3125 15.625 15.8333V17.7083C15.625 18.3333 15.2083 18.75 14.5833 18.75H13.5417C12.9167 18.75 12.5 18.3333 12.5 17.7083V16.6667H4.16667V17.7083C4.16667 18.3333 3.75 18.75 3.125 18.75H2.08333C1.45833 18.75 1.04167 18.3333 1.04167 17.7083V15.8333Z" fill="#FFB10C"/>
</svg>
