<svg width="20" height="29" viewBox="0 0 20 29" fill="none" xmlns="http://www.w3.org/2000/svg">
<path d="M10 6.42857C10.9472 6.42857 11.8556 6.80485 12.5254 7.47462C13.1952 8.14439 13.5714 9.0528 13.5714 10C13.5714 10.469 13.4791 10.9334 13.2996 11.3667C13.1201 11.8 12.857 12.1937 12.5254 12.5254C12.1937 12.857 11.8 13.1201 11.3667 13.2996C10.9334 13.4791 10.469 13.5714 10 13.5714C9.0528 13.5714 8.14439 13.1952 7.47462 12.5254C6.80485 11.8556 6.42857 10.9472 6.42857 10C6.42857 9.0528 6.80485 8.14439 7.47462 7.47462C8.14439 6.80485 9.0528 6.42857 10 6.42857ZM10 0C12.6522 0 15.1957 1.05357 17.0711 2.92893C18.9464 4.8043 20 7.34783 20 10C20 17.5 10 28.5714 10 28.5714C10 28.5714 0 17.5 0 10C0 7.34783 1.05357 4.8043 2.92893 2.92893C4.8043 1.05357 7.34784 0 10 0ZM10 2.85714C8.1056 2.85714 6.28878 3.60969 4.94924 4.94924C3.60969 6.28878 2.85714 8.1056 2.85714 10C2.85714 11.4286 2.85714 14.2857 10 23.8714C17.1429 14.2857 17.1429 11.4286 17.1429 10C17.1429 8.1056 16.3903 6.28878 15.0508 4.94924C13.7112 3.60969 11.8944 2.85714 10 2.85714Z" fill="#C0C0C0"/>
<path fill-rule="evenodd" clip-rule="evenodd" d="M10 2.85714C8.1056 2.85714 6.28878 3.60969 4.94924 4.94924C3.60969 6.28878 2.85714 8.1056 2.85714 10C2.85714 11.4286 2.85714 14.2857 10 23.8714C17.1429 14.2857 17.1429 11.4286 17.1429 10C17.1429 8.1056 16.3903 6.28878 15.0508 4.94924C13.7112 3.60969 11.8944 2.85714 10 2.85714ZM12.5254 7.47462C11.8556 6.80485 10.9472 6.42857 10 6.42857C9.0528 6.42857 8.14439 6.80485 7.47462 7.47462C6.80485 8.14439 6.42857 9.0528 6.42857 10C6.42857 10.9472 6.80485 11.8556 7.47462 12.5254C8.14439 13.1952 9.0528 13.5714 10 13.5714C10.469 13.5714 10.9334 13.4791 11.3667 13.2996C11.8 13.1201 12.1937 12.857 12.5254 12.5254C12.857 12.1937 13.1201 11.8 13.2996 11.3667C13.4791 10.9334 13.5714 10.469 13.5714 10C13.5714 9.0528 13.1952 8.14439 12.5254 7.47462Z" fill="#C0C0C0"/>
<path fill-rule="evenodd" clip-rule="evenodd" d="M10 2.85714C8.1056 2.85714 6.28878 3.60969 4.94924 4.94924C3.60969 6.28878 2.85714 8.1056 2.85714 10C2.85714 11.4286 2.85714 14.2857 10 23.8714C17.1429 14.2857 17.1429 11.4286 17.1429 10C17.1429 8.1056 16.3903 6.28878 15.0508 4.94924C13.7112 3.60969 11.8944 2.85714 10 2.85714ZM12.5254 7.47462C11.8556 6.80485 10.9472 6.42857 10 6.42857C9.0528 6.42857 8.14439 6.80485 7.47462 7.47462C6.80485 8.14439 6.42857 9.0528 6.42857 10C6.42857 10.9472 6.80485 11.8556 7.47462 12.5254C8.14439 13.1952 9.0528 13.5714 10 13.5714C10.469 13.5714 10.9334 13.4791 11.3667 13.2996C11.8 13.1201 12.1937 12.857 12.5254 12.5254C12.857 12.1937 13.1201 11.8 13.2996 11.3667C13.4791 10.9334 13.5714 10.469 13.5714 10C13.5714 9.0528 13.1952 8.14439 12.5254 7.47462Z" fill="white"/>
</svg>
