<svg width="35" height="35" viewBox="0 0 35 35" fill="none" xmlns="http://www.w3.org/2000/svg">
<g clip-path="url(#clip0_497_2789)">
<g filter="url(#filter0_d_497_2789)">
<path d="M12.3958 5.83183C12.3958 6.60538 12.0885 7.34724 11.5416 7.89422C10.9946 8.4412 10.2527 8.74849 9.47917 8.74849C8.70562 8.74849 7.96375 8.4412 7.41677 7.89422C6.86979 7.34724 6.5625 6.60538 6.5625 5.83183C6.5625 5.05828 6.86979 4.31641 7.41677 3.76943C7.96375 3.22245 8.70562 2.91516 9.47917 2.91516C10.2527 2.91516 10.9946 3.22245 11.5416 3.76943C12.0885 4.31641 12.3958 5.05828 12.3958 5.83183ZM7.29167 10.2068C5.67292 10.2068 4.375 11.5047 4.375 13.1235V21.8735H7.29167V32.0818H12.5562C11.5838 31.1324 10.8107 29.9984 10.2823 28.7463C9.75393 27.4942 9.48087 26.1492 9.47917 24.7902C9.48228 23.0012 9.95545 21.2445 10.8513 19.6961C11.7471 18.1476 13.0341 16.8617 14.5833 15.9672V13.1235C14.5833 11.5047 13.2854 10.2068 11.6667 10.2068H7.29167ZM18.9583 11.6652V23.3318H26.9792L30.9167 28.5818L33.25 26.8318L28.4375 20.4152H21.875V11.6652H18.9583ZM17.5 17.8339C16.0198 18.2994 14.7266 19.225 13.8086 20.4761C12.8907 21.7272 12.3957 23.2384 12.3958 24.7902C12.3958 26.724 13.1641 28.5787 14.5315 29.9461C15.899 31.3136 17.7536 32.0818 19.6875 32.0818C21.6214 32.0818 23.476 31.3136 24.8435 29.9461C26.2109 28.5787 26.9792 26.724 26.9792 24.7902H24.0625C24.0625 25.9505 23.6016 27.0633 22.7811 27.8838C21.9606 28.7042 20.8478 29.1652 19.6875 29.1652C18.5272 29.1652 17.4144 28.7042 16.5939 27.8838C15.7734 27.0633 15.3125 25.9505 15.3125 24.7902C15.3146 24.0242 15.5177 23.2722 15.9016 22.6093C16.2855 21.9465 16.8366 21.3961 17.5 21.0131V17.8339Z" fill="white"/>
</g>
</g>
<defs>
<filter id="filter0_d_497_2789" x="4.375" y="2.91516" width="30.875" height="31.1666" filterUnits="userSpaceOnUse" color-interpolation-filters="sRGB">
<feFlood flood-opacity="0" result="BackgroundImageFix"/>
<feColorMatrix in="SourceAlpha" type="matrix" values="0 0 0 0 0 0 0 0 0 0 0 0 0 0 0 0 0 0 127 0" result="hardAlpha"/>
<feOffset dx="1" dy="1"/>
<feGaussianBlur stdDeviation="0.5"/>
<feComposite in2="hardAlpha" operator="out"/>
<feColorMatrix type="matrix" values="0 0 0 0 0 0 0 0 0 0 0 0 0 0 0 0 0 0 0.25 0"/>
<feBlend mode="normal" in2="BackgroundImageFix" result="effect1_dropShadow_497_2789"/>
<feBlend mode="normal" in="SourceGraphic" in2="effect1_dropShadow_497_2789" result="shape"/>
</filter>
<clipPath id="clip0_497_2789">
<rect width="35" height="35" fill="white"/>
</clipPath>
</defs>
</svg>
