<svg width="36" height="35" viewBox="0 0 36 35" fill="none" xmlns="http://www.w3.org/2000/svg">
<g clip-path="url(#clip0_493_2637)">
<g filter="url(#filter0_d_493_2637)">
<path d="M18.0002 2.91504C18.7737 2.91504 19.5156 3.22233 20.0626 3.76931C20.6095 4.31629 20.9168 5.05816 20.9168 5.83171C20.9168 6.60525 20.6095 7.34712 20.0626 7.8941C19.5156 8.44108 18.7737 8.74837 18.0002 8.74837C17.2266 8.74837 16.4847 8.44108 15.9378 7.8941C15.3908 7.34712 15.0835 6.60525 15.0835 5.83171C15.0835 5.05816 15.3908 4.31629 15.9378 3.76931C16.4847 3.22233 17.2266 2.91504 18.0002 2.91504ZM15.8127 10.2067H20.1877C20.9612 10.2067 21.7031 10.514 22.2501 11.061C22.797 11.608 23.1043 12.3498 23.1043 13.1234V21.1442H20.9168V32.0817H15.0835V21.1442H12.896V13.1234C12.896 12.3498 13.2033 11.608 13.7503 11.061C14.2972 10.514 15.0391 10.2067 15.8127 10.2067Z" fill="#FFB10C"/>
</g>
</g>
<defs>
<filter id="filter0_d_493_2637" x="10.896" y="1.91504" width="14.2085" height="33.1667" filterUnits="userSpaceOnUse" color-interpolation-filters="sRGB">
<feFlood flood-opacity="0" result="BackgroundImageFix"/>
<feColorMatrix in="SourceAlpha" type="matrix" values="0 0 0 0 0 0 0 0 0 0 0 0 0 0 0 0 0 0 127 0" result="hardAlpha"/>
<feOffset dy="1"/>
<feGaussianBlur stdDeviation="1"/>
<feComposite in2="hardAlpha" operator="out"/>
<feColorMatrix type="matrix" values="0 0 0 0 0 0 0 0 0 0 0 0 0 0 0 0 0 0 0.25 0"/>
<feBlend mode="normal" in2="BackgroundImageFix" result="effect1_dropShadow_493_2637"/>
<feBlend mode="normal" in="SourceGraphic" in2="effect1_dropShadow_493_2637" result="shape"/>
</filter>
<clipPath id="clip0_493_2637">
<rect width="35" height="35" fill="white" transform="translate(0.5)"/>
</clipPath>
</defs>
</svg>
