<svg width="35" height="35" viewBox="0 0 35 35" fill="none" xmlns="http://www.w3.org/2000/svg">
<g clip-path="url(#clip0_490_2843)">
<g filter="url(#filter0_d_490_2843)">
<path d="M12.3958 5.83171C12.3958 6.60525 12.0885 7.34712 11.5416 7.8941C10.9946 8.44108 10.2527 8.74837 9.47917 8.74837C8.70562 8.74837 7.96375 8.44108 7.41677 7.8941C6.86979 7.34712 6.5625 6.60525 6.5625 5.83171C6.5625 5.05816 6.86979 4.31629 7.41677 3.76931C7.96375 3.22233 8.70562 2.91504 9.47917 2.91504C10.2527 2.91504 10.9946 3.22233 11.5416 3.76931C12.0885 4.31629 12.3958 5.05816 12.3958 5.83171ZM7.29167 10.2067C5.67292 10.2067 4.375 11.5046 4.375 13.1234V21.8734H7.29167V32.0817H12.5562C11.5838 31.1323 10.8107 29.9983 10.2823 28.7462C9.75393 27.4941 9.48087 26.1491 9.47917 24.79C9.48228 23.0011 9.95545 21.2444 10.8513 19.6959C11.7471 18.1475 13.0341 16.8616 14.5833 15.9671V13.1234C14.5833 11.5046 13.2854 10.2067 11.6667 10.2067H7.29167ZM18.9583 11.665V23.3317H26.9792L30.9167 28.5817L33.25 26.8317L28.4375 20.415H21.875V11.665H18.9583ZM17.5 17.8338C16.0198 18.2993 14.7266 19.2249 13.8086 20.476C12.8907 21.727 12.3957 23.2383 12.3958 24.79C12.3958 26.7239 13.1641 28.5786 14.5315 29.946C15.899 31.3135 17.7536 32.0817 19.6875 32.0817C21.6214 32.0817 23.476 31.3135 24.8435 29.946C26.2109 28.5786 26.9792 26.7239 26.9792 24.79H24.0625C24.0625 25.9504 23.6016 27.0632 22.7811 27.8836C21.9606 28.7041 20.8478 29.165 19.6875 29.165C18.5272 29.165 17.4144 28.7041 16.5939 27.8836C15.7734 27.0632 15.3125 25.9504 15.3125 24.79C15.3146 24.0241 15.5177 23.2721 15.9016 22.6092C16.2855 21.9464 16.8366 21.3959 17.5 21.013V17.8338Z" fill="#FFB10C"/>
</g>
</g>
<defs>
<filter id="filter0_d_490_2843" x="4.375" y="2.91504" width="30.875" height="31.1667" filterUnits="userSpaceOnUse" color-interpolation-filters="sRGB">
<feFlood flood-opacity="0" result="BackgroundImageFix"/>
<feColorMatrix in="SourceAlpha" type="matrix" values="0 0 0 0 0 0 0 0 0 0 0 0 0 0 0 0 0 0 127 0" result="hardAlpha"/>
<feOffset dx="1" dy="1"/>
<feGaussianBlur stdDeviation="0.5"/>
<feComposite in2="hardAlpha" operator="out"/>
<feColorMatrix type="matrix" values="0 0 0 0 0 0 0 0 0 0 0 0 0 0 0 0 0 0 0.25 0"/>
<feBlend mode="normal" in2="BackgroundImageFix" result="effect1_dropShadow_490_2843"/>
<feBlend mode="normal" in="SourceGraphic" in2="effect1_dropShadow_490_2843" result="shape"/>
</filter>
<clipPath id="clip0_490_2843">
<rect width="35" height="35" fill="white"/>
</clipPath>
</defs>
</svg>
