<svg width="25" height="25" viewBox="0 0 25 25" fill="none" xmlns="http://www.w3.org/2000/svg">
<path d="M11.4584 9.37614H13.5418V7.29281H11.4584V9.37614ZM12.5001 20.8345C7.90635 20.8345 4.16677 17.0949 4.16677 12.5011C4.16677 7.90739 7.90635 4.16781 12.5001 4.16781C17.0939 4.16781 20.8334 7.90739 20.8334 12.5011C20.8334 17.0949 17.0939 20.8345 12.5001 20.8345ZM12.5001 2.08447C11.1322 2.08447 9.77762 2.35391 8.51382 2.87739C7.25001 3.40088 6.10168 4.16817 5.13441 5.13544C3.1809 7.08895 2.08344 9.73847 2.08344 12.5011C2.08344 15.2638 3.1809 17.9133 5.13441 19.8668C6.10168 20.8341 7.25001 21.6014 8.51382 22.1249C9.77762 22.6484 11.1322 22.9178 12.5001 22.9178C15.2628 22.9178 17.9123 21.8203 19.8658 19.8668C21.8193 17.9133 22.9168 15.2638 22.9168 12.5011C22.9168 11.1332 22.6473 9.77866 22.1238 8.51485C21.6004 7.25104 20.8331 6.10272 19.8658 5.13544C18.8985 4.16817 17.7502 3.40088 16.4864 2.87739C15.2226 2.35391 13.868 2.08447 12.5001 2.08447ZM11.4584 17.7095H13.5418V11.4595H11.4584V17.7095Z" fill="black"/>
</svg>
