<svg width="21" height="21" viewBox="0 0 21 21" fill="none" xmlns="http://www.w3.org/2000/svg">
<path d="M10.4167 18.75C15 18.75 18.75 15 18.75 10.4167C18.75 5.83333 15 2.08333 10.4167 2.08333C5.83333 2.08333 2.08333 5.83333 2.08333 10.4167C2.08333 15 5.83333 18.75 10.4167 18.75ZM10.4167 0C16.1458 0 20.8333 4.6875 20.8333 10.4167C20.8333 16.1458 16.1458 20.8333 10.4167 20.8333C4.6875 20.8333 0 16.1458 0 10.4167C0 4.6875 4.6875 0 10.4167 0ZM15.625 12.3958L14.8958 13.75L9.375 10.7292V5.20833H10.9375V9.79167L15.625 12.3958Z" fill="#C0C0C0"/>
</svg>
