<svg width="30" height="30" viewBox="0 0 30 30" fill="none" xmlns="http://www.w3.org/2000/svg">
<path d="M5 8.75C5 8.05964 5.55964 7.5 6.25 7.5C6.94036 7.5 7.5 8.05964 7.5 8.75C7.5 9.44036 6.94036 10 6.25 10C5.55964 10 5 9.44036 5 8.75ZM5 15C5 14.3096 5.55964 13.75 6.25 13.75C6.94036 13.75 7.5 14.3096 7.5 15C7.5 15.6904 6.94036 16.25 6.25 16.25C5.55964 16.25 5 15.6904 5 15ZM5 21.25C5 20.5596 5.55964 20 6.25 20C6.94036 20 7.5 20.5596 7.5 21.25C7.5 21.9404 6.94036 22.5 6.25 22.5C5.55964 22.5 5 21.9404 5 21.25ZM23.75 10C24.4404 10 25 9.44036 25 8.75C25 8.05964 24.4404 7.5 23.75 7.5H11.2787C10.5884 7.5 10.0287 8.05964 10.0287 8.75C10.0287 9.44036 10.5884 10 11.2787 10H16.7644H23.5H23.75ZM10 15C10 14.3096 10.5596 13.75 11.25 13.75H23.75C24.4404 13.75 25 14.3096 25 15C25 15.6904 24.4404 16.25 23.75 16.25H11.25C10.5596 16.25 10 15.6904 10 15ZM10 21.25C10 20.5596 10.5596 20 11.25 20H23.75C24.4404 20 25 20.5596 25 21.25C25 21.9404 24.4404 22.5 23.75 22.5H11.25C10.5596 22.5 10 21.9404 10 21.25Z" fill= "#FFB10C"/>
</svg>
