<svg width="19" height="19" viewBox="0 0 19 19" fill="none" xmlns="http://www.w3.org/2000/svg">
<path d="M0.303239 18.2769C0.713395 18.6754 1.39308 18.6754 1.79152 18.2769L9.29152 10.7769L16.7915 18.2769C17.19 18.6754 17.8814 18.6871 18.2798 18.2769C18.6782 17.8668 18.6782 17.1988 18.2798 16.8004L10.7798 9.28859L18.2798 1.78859C18.6782 1.39015 18.69 0.710465 18.2798 0.312027C17.8696 -0.0981291 17.19 -0.0981291 16.7915 0.312027L9.29152 7.81203L1.79152 0.312027C1.39308 -0.0981291 0.701676 -0.109848 0.303239 0.312027C-0.0951989 0.722183 -0.0951989 1.39015 0.303239 1.78859L7.80324 9.28859L0.303239 16.8004C-0.0951989 17.1988 -0.106918 17.8785 0.303239 18.2769Z" fill="#464646" fill-opacity="0.85"/>
</svg>
